<svg xmlns="http://www.w3.org/2000/svg" viewBox="0 0 1600 640" preserveAspectRatio="xMidYMid slice"><rect width="100%" height="100%" fill="#0A5F66"/><defs><linearGradient id="g" x1="0" y1="0" x2="1" y2="1"><stop offset="0" stop-color="#8FD9CC" stop-opacity=".10"/><stop offset="1" stop-color="#FFFFFF" stop-opacity=".22"/></linearGradient></defs><g fill="none" stroke="#fff" stroke-opacity=".16" stroke-width="1.5"><rect x="980" y="60" width="300" height="640" fill="url(#g)"/><line x1="1030.0" y1="60" x2="1030.0" y2="700"/><line x1="1080.0" y1="60" x2="1080.0" y2="700"/><line x1="1130.0" y1="60" x2="1130.0" y2="700"/><line x1="1180.0" y1="60" x2="1180.0" y2="700"/><line x1="1230.0" y1="60" x2="1230.0" y2="700"/><line x1="980" y1="105.7" x2="1280" y2="105.7"/><line x1="980" y1="151.4" x2="1280" y2="151.4"/><line x1="980" y1="197.1" x2="1280" y2="197.1"/><line x1="980" y1="242.9" x2="1280" y2="242.9"/><line x1="980" y1="288.6" x2="1280" y2="288.6"/><line x1="980" y1="334.3" x2="1280" y2="334.3"/><line x1="980" y1="380.0" x2="1280" y2="380.0"/><line x1="980" y1="425.7" x2="1280" y2="425.7"/><line x1="980" y1="471.4" x2="1280" y2="471.4"/><line x1="980" y1="517.1" x2="1280" y2="517.1"/><line x1="980" y1="562.9" x2="1280" y2="562.9"/><line x1="980" y1="608.6" x2="1280" y2="608.6"/><line x1="980" y1="654.3" x2="1280" y2="654.3"/><rect x="1300" y="-20" width="320" height="700" fill="url(#g)"/><line x1="1345.7" y1="-20" x2="1345.7" y2="680"/><line x1="1391.4" y1="-20" x2="1391.4" y2="680"/><line x1="1437.1" y1="-20" x2="1437.1" y2="680"/><line x1="1482.9" y1="-20" x2="1482.9" y2="680"/><line x1="1528.6" y1="-20" x2="1528.6" y2="680"/><line x1="1574.3" y1="-20" x2="1574.3" y2="680"/><line x1="1300" y1="26.7" x2="1620" y2="26.7"/><line x1="1300" y1="73.3" x2="1620" y2="73.3"/><line x1="1300" y1="120.0" x2="1620" y2="120.0"/><line x1="1300" y1="166.7" x2="1620" y2="166.7"/><line x1="1300" y1="213.3" x2="1620" y2="213.3"/><line x1="1300" y1="260.0" x2="1620" y2="260.0"/><line x1="1300" y1="306.7" x2="1620" y2="306.7"/><line x1="1300" y1="353.3" x2="1620" y2="353.3"/><line x1="1300" y1="400.0" x2="1620" y2="400.0"/><line x1="1300" y1="446.7" x2="1620" y2="446.7"/><line x1="1300" y1="493.3" x2="1620" y2="493.3"/><line x1="1300" y1="540.0" x2="1620" y2="540.0"/><line x1="1300" y1="586.7" x2="1620" y2="586.7"/><line x1="1300" y1="633.3" x2="1620" y2="633.3"/><rect x="860" y="220" width="110" height="480" fill="url(#g)"/><line x1="915.0" y1="220" x2="915.0" y2="700"/><line x1="860" y1="273.3" x2="970" y2="273.3"/><line x1="860" y1="326.7" x2="970" y2="326.7"/><line x1="860" y1="380.0" x2="970" y2="380.0"/><line x1="860" y1="433.3" x2="970" y2="433.3"/><line x1="860" y1="486.7" x2="970" y2="486.7"/><line x1="860" y1="540.0" x2="970" y2="540.0"/><line x1="860" y1="593.3" x2="970" y2="593.3"/><line x1="860" y1="646.7" x2="970" y2="646.7"/></g><g fill="#6FD3C1" fill-opacity=".08"><circle cx="60" cy="120" r="140"/><circle cx="170" cy="40" r="110"/><circle cx="20" cy="300" r="120"/></g></svg>